<svg width="40" height="40" viewBox="0 0 40 40" fill="none" xmlns="http://www.w3.org/2000/svg">
<path d="M37.267 18.0118L20.715 5.24536C20.2944 4.91821 19.7102 4.91821 19.2896 5.24536L2.72979 18.0118C2.21571 18.4091 2.12224 19.1412 2.51949 19.6475C2.90895 20.1616 3.64892 20.2551 4.15521 19.8578L19.9984 7.64442L35.8416 19.8578C36.0519 20.0214 36.3011 20.0993 36.5582 20.0993C36.9087 20.0993 37.2514 19.9435 37.4851 19.6475C37.8745 19.1412 37.7811 18.4091 37.267 18.0118Z" fill="#262626"/>
<path d="M33.7296 19.9907L20.7139 9.95044C20.2933 9.62329 19.7091 9.62329 19.2885 9.95044L6.26495 19.9907C5.75086 20.3879 5.65739 21.1201 6.05464 21.6264C6.21822 21.8367 6.4441 21.9769 6.68557 22.0392V34.9926H17.715V26.8374C17.715 25.5833 18.7354 24.5551 19.9973 24.5551C21.2513 24.5551 22.2795 25.5755 22.2795 26.8374V35.0004H33.309V22.047C33.5504 21.9847 33.7763 21.8445 33.9477 21.6342C34.3371 21.1201 34.2437 20.3879 33.7296 19.9907ZM24.6162 32.6637V26.8374C24.6162 24.2903 22.5443 22.2184 19.9973 22.2184C17.4502 22.2184 15.3783 24.2903 15.3783 26.8374V32.6637H9.03011V20.8163L19.9973 12.3573L30.9722 20.8163V32.6637H24.6162V32.6637Z" fill="#262626"/>
</svg>
