<svg width="40" height="40" viewBox="0 0 40 40" fill="none" xmlns="http://www.w3.org/2000/svg">
<path d="M35.5737 6.38398C31.507 2.31732 24.8987 2.31732 20.832 6.38398L19.9737 7.23398L19.1237 6.38398C15.057 2.32565 8.4487 2.31732 4.38203 6.38398C0.315365 10.4507 0.315365 17.059 4.38203 21.1257L19.1487 35.8923C19.3737 36.1173 19.6737 36.234 19.9737 36.234C20.2737 36.234 20.5737 36.1173 20.7987 35.8923L35.5654 21.1257C39.632 17.059 39.632 10.4423 35.5737 6.38398ZM33.9237 19.4673L19.982 33.409L6.04036 19.4673C2.89036 16.3173 2.89036 11.184 6.04036 8.02565C7.61536 6.45065 9.69036 5.66732 11.757 5.66732C13.8237 5.66732 15.8987 6.45898 17.4737 8.03398L19.1487 9.70898C19.5987 10.1673 20.3404 10.1673 20.7987 9.70898L22.482 8.03398C25.632 4.87565 30.7654 4.87565 33.9237 8.03398C37.0737 11.184 37.0737 16.3173 33.9237 19.4673Z" fill="#262626"/>
<path d="M28.2057 8.32617C27.5641 8.32617 27.0391 8.85117 27.0391 9.49284C27.0391 10.1345 27.5641 10.6595 28.2057 10.6595C29.0307 10.6595 29.8057 10.9762 30.3891 11.5595C31.0141 12.1928 31.3474 13.0595 31.2891 13.9512C31.2474 14.5928 31.7307 15.1512 32.3724 15.1928C32.3974 15.1928 32.4224 15.1928 32.4474 15.1928C33.0557 15.1928 33.5724 14.7178 33.6141 14.1012C33.7224 12.5345 33.1474 11.0095 32.0391 9.90117C31.0141 8.89284 29.6474 8.32617 28.2057 8.32617Z" fill="#262626"/>
<path d="M26.2417 16.0094H23.3833V13.151C23.3833 12.576 22.9167 12.1094 22.3417 12.1094H17.3167C16.7417 12.1094 16.275 12.576 16.275 13.151V16.0094H13.4167C12.8417 16.0094 12.375 16.476 12.375 17.051V22.076C12.375 22.651 12.8417 23.1177 13.4167 23.1177H16.275V25.976C16.275 26.551 16.7417 27.0177 17.3167 27.0177H22.3417C22.9167 27.0177 23.3833 26.551 23.3833 25.976V23.1177H26.2417C26.8167 23.1177 27.2833 22.651 27.2833 22.076V17.051C27.2833 16.476 26.8167 16.0094 26.2417 16.0094ZM25.2 21.0344H22.3417C21.7667 21.0344 21.3 21.501 21.3 22.076V24.9344H18.3583V22.076C18.3583 21.501 17.8917 21.0344 17.3167 21.0344H14.4583V18.0927H17.3167C17.8917 18.0927 18.3583 17.626 18.3583 17.051V14.1927H21.3V17.051C21.3 17.626 21.7667 18.0927 22.3417 18.0927H25.2V21.0344Z" fill="#262626"/>
</svg>