<svg width="40" height="41" viewBox="0 0 40 41" fill="none" xmlns="http://www.w3.org/2000/svg">
<path d="M17.5895 22.7575C17.5739 22.7496 17.5582 22.7418 17.5425 22.7418L15.5583 22.036C15.1584 21.8948 14.8604 21.6438 14.7741 21.385C14.727 21.236 14.7506 21.087 14.8525 20.938C15.1898 20.4283 16.2171 20.0989 17.1582 20.4361C17.4327 20.5302 17.6444 20.6949 17.7229 20.8596C17.9424 21.3301 18.5071 21.534 18.9776 21.3066C19.4482 21.087 19.6521 20.5224 19.4325 20.0518C19.1345 19.4244 18.5542 18.9225 17.8013 18.6559C17.5974 18.5853 17.3856 18.5225 17.166 18.4833V17.652C17.166 17.1344 16.7426 16.7109 16.225 16.7109C15.7074 16.7109 15.2839 17.1344 15.2839 17.652V18.5539C14.4526 18.7735 13.7232 19.2284 13.2919 19.8871C12.8684 20.5302 12.7664 21.2674 13.0017 21.9732C13.2684 22.7653 13.935 23.4162 14.8525 23.7691C14.8682 23.777 14.8839 23.7848 14.8996 23.7848L16.8837 24.4906C17.2915 24.6318 17.5817 24.8828 17.668 25.1416C17.715 25.2906 17.6915 25.4396 17.5895 25.5886C17.2523 26.0983 16.225 26.4277 15.2839 26.0905C15.0094 25.9885 14.7976 25.8317 14.7192 25.667C14.4996 25.1965 13.935 24.9925 13.4644 25.2121C12.9939 25.4317 12.79 25.9964 13.0096 26.4669C13.3076 27.0943 13.8879 27.5962 14.6486 27.8629C14.8525 27.9335 15.0643 27.9884 15.2839 28.0276V28.8589C15.2839 29.3765 15.7074 29.8 16.225 29.8C16.7426 29.8 17.166 29.3765 17.166 28.8589V27.957C17.9973 27.7374 18.7267 27.2825 19.158 26.6238C19.5815 25.9885 19.6835 25.2435 19.4482 24.5455C19.1737 23.7613 18.5071 23.1104 17.5895 22.7575Z" fill="#262626"/>
<path d="M35.7365 25.3931H35.2581V21.9659C35.2581 21.4483 34.8346 21.0249 34.317 21.0249H27.6353L27.4863 19.723C27.0628 15.9822 24.3023 12.9785 20.6477 11.9119C20.8516 11.5277 20.9849 11.0963 20.9849 10.6258C20.9849 9.74743 20.5614 8.97103 19.9105 8.46911L21.8946 4.35968C22.0436 4.04598 22.0123 3.66954 21.8005 3.38722C21.5888 3.10489 21.2437 2.96372 20.8986 3.01862L16.2167 3.77934L11.621 3.01862C11.2681 2.95588 10.9231 3.09705 10.7113 3.37937C10.4996 3.6617 10.4682 4.03814 10.6172 4.35184L12.4915 8.23384C11.6524 8.70439 11.0721 9.59058 11.0721 10.6258C11.0721 11.1355 11.2211 11.5982 11.4563 12.0061C7.95862 13.151 5.33924 16.0841 4.9236 19.723L4.04524 27.589C3.81781 29.5966 4.45305 31.5572 5.83332 33.1022C7.33122 34.7805 9.5271 35.7451 11.8642 35.7451H20.5614C21.1888 35.7451 21.8005 35.6667 22.3965 35.5334C22.5612 35.8078 22.8514 36.0039 23.1886 36.0039H34.317C34.8346 36.0039 35.2581 35.5804 35.2581 35.0628V31.6357H35.7365C36.2541 31.6357 36.6776 31.2122 36.6776 30.6946V26.3263C36.6776 25.8087 36.262 25.3931 35.7365 25.3931ZM33.3759 34.1217H25.4708H24.1297V32.7728V31.6435H24.6081H25.3531H27.5961H33.3681V34.1217H33.3759ZM33.3759 22.907V25.3931H28.1294H26.2315H24.6081H24.1297V22.907H25.957H27.8549H33.3759V22.907ZM34.7954 27.2753V29.7613H34.317H28.2862H26.3413H25.5492V27.2753H26.4432H28.3411H34.317H34.7954V27.2753ZM16.0599 5.65368C16.1618 5.66936 16.2638 5.66936 16.3657 5.65368L19.4164 5.15961L18.1067 7.87309H14.4129L13.1033 5.16745L16.0599 5.65368ZM13.8169 11.4885C13.3385 11.4885 12.9542 11.1042 12.9542 10.6258C12.9542 10.1474 13.3385 9.76312 13.8169 9.76312H18.2322C18.7106 9.76312 19.0949 10.1474 19.0949 10.6258C19.0949 11.1042 18.7106 11.4885 18.2322 11.4885H17.7068H14.7031H13.8169ZM11.8642 33.8629C10.0682 33.8629 8.38211 33.1257 7.23711 31.8474C6.2176 30.7024 5.74705 29.2673 5.91174 27.8007L6.79794 19.9269C7.22143 16.1861 10.6172 13.3628 14.7031 13.3628H17.7068C21.7927 13.3628 25.1884 16.1861 25.6119 19.9269L25.7374 21.017H23.1886C22.671 21.017 22.2475 21.4405 22.2475 21.9581V26.3263C22.2475 26.8439 22.671 27.2674 23.1886 27.2674H23.667V29.7535H23.1886C22.671 29.7535 22.2475 30.177 22.2475 30.6946V33.6276C21.7064 33.7767 21.1339 33.8551 20.5536 33.8551H11.8642V33.8629Z" fill="#262626"/>
</svg>
