<svg width="40" height="40" viewBox="0 0 40 40" fill="none" xmlns="http://www.w3.org/2000/svg">
<path d="M37.8516 17.55C37.7849 17.2583 37.5933 17 37.3266 16.8583C35.4766 15.825 32.7266 15.7333 31.0599 17.5333C30.4683 18.175 29.5599 19.1 28.7516 19.9083C27.1683 17.875 24.7683 16.6167 22.1683 16.4833V12.5V11.6H23.5599C26.3349 11.6 28.5933 9.34167 28.5933 6.56667V3.58333C28.5849 2.98333 28.1016 2.5 27.5016 2.5H25.0266C22.9099 2.5 21.1016 3.81667 20.3516 5.66667C19.4766 4.93333 18.3516 4.48333 17.1183 4.48333H12.0099C11.4099 4.48333 10.9266 4.96667 10.9266 5.56667V8.54167C10.9266 11.3167 13.1849 13.575 15.9599 13.575H19.9849V16.6C16.7266 17.2167 14.0766 19.575 13.1099 22.8167C11.9183 23.2417 10.7349 23.8083 9.68493 24.4583L9.44326 23.7917C9.34326 23.525 9.14326 23.3 8.88493 23.1833C8.6266 23.0667 8.3266 23.05 8.05993 23.15L2.38493 25.2167C1.8266 25.425 1.53493 26.0417 1.73493 26.6083L5.63493 37.3167C5.73493 37.5833 5.93493 37.8083 6.19326 37.925C6.33493 37.9917 6.49326 38.025 6.6516 38.025C6.7766 38.025 6.9016 38 7.01826 37.9583L12.6933 35.8917C13.2516 35.6833 13.5433 35.0667 13.3433 34.5L13.1016 33.825C13.7516 33.075 14.4599 32.325 14.7849 32.05C15.1349 32.05 15.9349 32.1333 16.6433 32.2167C17.7599 32.3333 19.1516 32.4833 20.7016 32.5667C24.6016 32.7583 28.2433 31.3833 29.9849 29.0417C31.6933 26.7417 36.5099 20.1667 37.7016 18.4C37.8599 18.1583 37.9183 17.8417 37.8516 17.55ZM22.1599 7.53333C22.1599 5.95 23.4433 4.66667 25.0266 4.66667H26.4183V6.55833C26.4183 8.14167 25.1349 9.425 23.5516 9.425H22.1599V8.69167V7.53333V7.53333ZM15.9683 11.4167C14.3849 11.4167 13.1016 10.1333 13.1016 8.55V6.65H17.1266C18.7099 6.65 19.9933 7.94167 19.9933 9.525V10.5167V11.4167H15.9683ZM15.7516 22.1C16.9183 19.9833 19.1599 18.6083 21.6933 18.6083C23.3516 18.6083 24.9266 19.2167 26.1433 20.275C26.1349 20.275 26.1183 20.275 26.1099 20.2667C25.9433 20.2333 25.7683 20.2083 25.5933 20.2C25.5766 20.2 25.5599 20.2 25.5516 20.2C25.3933 20.1917 25.2349 20.2 25.0683 20.2083C25.0266 20.2083 24.9849 20.2167 24.9433 20.2167C24.8016 20.2333 24.6599 20.25 24.5183 20.2833C24.4766 20.2917 24.4266 20.3 24.3849 20.3083C24.2016 20.35 24.0183 20.4 23.8266 20.475L23.5099 20.5917C22.3266 21.0333 19.5599 22.0667 17.7599 21.9417C17.4349 21.925 17.1016 21.9333 16.7516 21.9583C16.7266 21.9583 16.6933 21.9667 16.6683 21.9667C16.3516 22.0083 16.0433 22.05 15.7516 22.1ZM7.29326 35.5583L4.14326 26.8833L7.78493 25.5583L10.9433 34.2333L7.29326 35.5583ZM28.2433 27.7583C26.9433 29.5 23.9516 30.5667 20.8099 30.4083C19.3266 30.3333 17.9683 30.1917 16.8766 30.075C15.0933 29.8833 14.5099 29.8333 14.0349 30.0083C13.8599 30.075 13.4849 30.2083 12.2683 31.5333L10.4599 26.5667C11.6433 25.775 13.0266 25.1333 14.3266 24.7083C14.3349 24.7083 14.3433 24.7083 14.3516 24.7C15.3183 24.3833 16.2183 24.1917 16.9349 24.1333C17.1766 24.1167 17.4099 24.1083 17.6099 24.125C19.8683 24.2583 22.8266 23.1667 24.2433 22.6417L24.5516 22.525C24.6599 22.4833 24.7683 22.4583 24.8683 22.4333C24.8683 22.4333 24.8683 22.4333 24.8766 22.4333C25.3016 22.3417 25.6766 22.3833 26.0099 22.5C26.0849 22.5333 26.1683 22.5667 26.2516 22.6083C26.2599 22.6167 26.2683 22.6167 26.2766 22.625C26.3933 22.6917 26.5099 22.7667 26.6266 22.8667L20.6766 25.0333L21.4183 27.0667L28.7933 24.3833C29.0933 24.275 29.3266 24.0417 29.4433 23.7417C29.5516 23.4417 29.5266 23.1083 29.3683 22.8333C29.3099 22.7333 29.2516 22.6333 29.1933 22.5417C30.1099 21.6333 31.7266 20.0167 32.6516 19.0167C33.2766 18.3333 34.2516 18.2167 35.1016 18.3667C33.2849 20.9 29.6683 25.8333 28.2433 27.7583Z" fill="#262626"/>
</svg>