<svg width="40" height="40" viewBox="0 0 40 40" fill="none" xmlns="http://www.w3.org/2000/svg">
<path d="M38.5413 26.1174C37.1163 24.4841 34.5163 23.4258 32.2913 24.5758C31.0997 25.1924 29.0163 26.1591 27.8247 26.7091C27.0913 25.6591 25.933 24.8841 24.258 24.8841H23.908C22.6163 24.8841 19.5747 24.9091 17.8747 24.1674C15.833 23.2758 12.208 23.1424 9.19968 23.7674V23.0091C9.19968 22.4091 8.71634 21.9258 8.11634 21.9258H1.91634C1.31634 21.9258 0.833008 22.4091 0.833008 23.0091V34.7091C0.833008 35.3091 1.31634 35.7925 1.91634 35.7925H8.11634C8.71634 35.7925 9.19968 35.3091 9.19968 34.7091V33.9591C10.108 33.4591 11.0663 32.9674 11.4747 32.8258C11.808 32.9508 12.558 33.3174 13.2247 33.6424C14.258 34.1508 15.5497 34.7841 17.0163 35.4008C18.808 36.1591 20.6663 36.5341 22.3913 36.5341C24.2247 36.5341 25.8997 36.1091 27.183 35.2674C29.6413 33.6508 36.5997 28.9924 38.3663 27.7091C38.608 27.5341 38.7747 27.2591 38.808 26.9508C38.8413 26.6424 38.7413 26.3424 38.5413 26.1174ZM7.03301 33.6258H2.99967V24.0924H7.03301V33.6258V33.6258ZM25.9913 33.4508C24.1163 34.6841 20.8497 34.6675 17.858 33.4008C16.4497 32.8091 15.1913 32.1924 14.183 31.6924C12.533 30.8841 11.983 30.6258 11.4747 30.6258C11.283 30.6258 10.8747 30.6258 9.19968 31.4925V25.9841C12.033 25.2924 15.458 25.4841 16.9997 26.1508C19.1247 27.0841 22.358 27.0591 23.9163 27.0508H24.2497C25.258 27.0508 25.8413 27.5591 26.1913 28.1591H19.6247C19.0247 28.1591 18.5413 28.6424 18.5413 29.2424C18.5413 29.8424 19.0247 30.3258 19.6247 30.3258H27.683C27.9997 30.3258 28.308 30.1841 28.508 29.9424C28.7163 29.7008 28.7997 29.3758 28.7497 29.0674C28.733 28.9424 28.708 28.8258 28.6747 28.7008C29.8747 28.1508 32.0163 27.1508 33.2747 26.5008C34.1413 26.0508 35.1497 26.2924 35.9413 26.7591C33.3163 28.5758 28.058 32.0841 25.9913 33.4508Z" fill="#262626"/>
<path d="M19.8247 22.4013C24.8497 22.4013 28.9413 18.3096 28.9413 13.2846C28.9413 8.25963 24.8497 4.16797 19.8247 4.16797C14.7997 4.16797 10.708 8.25963 10.708 13.2846C10.708 18.3096 14.7913 22.4013 19.8247 22.4013ZM19.8247 6.33464C23.658 6.33464 26.7747 9.4513 26.7747 13.2846C26.7747 17.118 23.658 20.2346 19.8247 20.2346C15.9913 20.2346 12.8747 17.118 12.8747 13.2846C12.8747 9.4513 15.9913 6.33464 19.8247 6.33464Z" fill="#262626"/>
<path d="M18.5579 13.8943C18.5662 13.8943 18.5745 13.9026 18.5912 13.9026C18.5995 13.9026 18.6162 13.9109 18.6245 13.9109L20.3412 14.5276C20.7079 14.6609 20.8829 14.8526 20.9329 14.9943C20.9495 15.0526 20.9579 15.1276 20.8829 15.2443C20.6245 15.6359 19.7829 15.8859 19.0412 15.6193C18.8079 15.5359 18.6745 15.4109 18.6412 15.3359C18.4079 14.8359 17.8162 14.6193 17.3079 14.8526C16.8079 15.0859 16.5912 15.6859 16.8245 16.1859C17.1079 16.7859 17.6495 17.2526 18.3662 17.5109C18.5162 17.5609 18.6662 17.5943 18.8162 17.6276V18.2359C18.8162 18.7859 19.2662 19.2359 19.8162 19.2359C20.3662 19.2359 20.8162 18.7859 20.8162 18.2359V17.5693C21.5329 17.3526 22.1662 16.9359 22.5495 16.3609C22.9495 15.7526 23.0495 15.0443 22.8245 14.3776C22.5745 13.6276 21.9495 13.0193 21.0995 12.6943C21.0829 12.6859 21.0662 12.6776 21.0412 12.6693L19.2662 12.0359C18.9162 11.9026 18.7495 11.7109 18.6995 11.5776C18.6829 11.5193 18.6662 11.4443 18.7495 11.3276C19.0079 10.9359 19.8495 10.6859 20.5912 10.9526C20.8245 11.0359 20.9579 11.1609 20.9912 11.2443C21.2245 11.7443 21.8245 11.9526 22.3245 11.7193C22.8245 11.4859 23.0412 10.8859 22.7995 10.3859C22.5162 9.78594 21.9662 9.31927 21.2579 9.06927C21.1079 9.01927 20.9579 8.98594 20.8079 8.9526V8.33594C20.8079 7.78594 20.3579 7.33594 19.8079 7.33594C19.2579 7.33594 18.8079 7.78594 18.8079 8.33594V9.0026C18.0912 9.21927 17.4579 9.6276 17.0745 10.2109C16.6745 10.8193 16.5745 11.5276 16.7995 12.1943C17.0662 12.9526 17.6995 13.5693 18.5579 13.8943Z" fill="#262626"/>
</svg>