<svg width="40" height="40" viewBox="0 0 40 40" fill="none" xmlns="http://www.w3.org/2000/svg">
<path d="M34.2443 11.2017H25.2181C23.606 9.57364 21.3715 8.5601 18.9054 8.5601C18.6022 8.5601 18.3069 8.57606 18.0196 8.60798C17.836 4.9289 14.8034 2 11.0844 2C7.25369 2 4.13325 5.12044 4.13325 8.95115C4.13325 9.74123 4.26892 10.4994 4.51632 11.2017H3.95768C3.43096 11.2017 3 11.6326 3 12.1594V34.0423C3 34.569 3.43096 35 3.95768 35H34.2443C34.771 35 35.2019 34.569 35.2019 34.0423V12.1594C35.2019 11.6247 34.779 11.2017 34.2443 11.2017ZM33.2866 33.0846H4.91536V13.117H5.53785C6.63918 14.5695 8.29117 15.5831 10.1826 15.8305C10.0868 16.3492 10.031 16.8839 10.031 17.4266C10.031 17.9693 10.0948 18.496 10.1906 19.0148C8.8977 19.3739 7.94002 20.547 7.94002 21.9516C7.94002 23.6356 9.30472 25.0002 10.9886 25.0002H14.564H23.2549H26.8302C28.5141 25.0002 29.8788 23.6356 29.8788 21.9516C29.8788 20.547 28.9212 19.3739 27.6283 19.0227C27.7241 18.504 27.7879 17.9773 27.7879 17.4346C27.7879 15.8704 27.3729 14.4019 26.6626 13.125H33.2946V33.0846H33.2866ZM6.05659 8.95115C6.05659 6.17388 8.31511 3.91536 11.0844 3.91536C13.8537 3.91536 16.1122 6.17388 16.1122 8.95115C16.1122 8.97509 16.1122 8.99105 16.1122 9.01499C14.7715 9.46191 13.5664 10.2201 12.5927 11.2017C12.2975 11.497 12.0341 11.8242 11.7787 12.1594C11.5553 12.4626 11.3398 12.7819 11.1562 13.117C11.0046 13.3884 10.8609 13.6757 10.7333 13.963C9.82346 13.8992 8.97751 13.6039 8.26723 13.117C7.8682 12.8457 7.51705 12.5265 7.21378 12.1594C6.97437 11.8641 6.76687 11.5449 6.59129 11.2017C6.25611 10.5233 6.05659 9.75719 6.05659 8.95115ZM23.4385 12.1594C23.7736 12.4467 24.0849 12.7659 24.3562 13.117C25.2979 14.3062 25.8646 15.7985 25.8646 17.4266C25.8646 17.9294 25.8007 18.4162 25.697 18.895C25.5533 19.5734 25.3059 20.2119 24.9707 20.8104C24.4759 21.6963 23.7976 22.4704 22.9516 23.0769H14.8593C14.0133 22.4704 13.3349 21.6883 12.8401 20.8104C12.505 20.2119 12.2576 19.5734 12.1139 18.895C12.0102 18.4162 11.9463 17.9294 11.9463 17.4266C11.9463 16.868 12.0181 16.3253 12.1458 15.8065C12.2336 15.4474 12.3374 15.1042 12.481 14.769C12.6646 14.3381 12.88 13.9231 13.1434 13.54C13.2392 13.3964 13.3509 13.2527 13.4626 13.117C13.742 12.7659 14.0452 12.4467 14.3804 12.1594C14.7236 11.8641 15.0987 11.6007 15.4977 11.3693C15.6015 11.3054 15.7132 11.2496 15.8249 11.2017C16.1362 11.0501 16.4474 10.9144 16.7826 10.8106C17.1258 10.6989 17.4769 10.6191 17.844 10.5632C18.1952 10.5074 18.5463 10.4755 18.9134 10.4755C20.0227 10.4755 21.0682 10.7388 21.994 11.2017C22.5127 11.4571 22.9995 11.7763 23.4385 12.1594ZM12.09 23.0849H10.9886C10.3661 23.0849 9.85538 22.5741 9.85538 21.9516C9.85538 21.4169 10.2305 20.97 10.7253 20.8503C11.0684 21.6563 11.5233 22.4065 12.09 23.0849ZM27.0856 20.8503C27.5884 20.97 27.9555 21.4169 27.9555 21.9516C27.9555 22.5741 27.4447 23.0849 26.8222 23.0849H25.7209C26.2875 22.4065 26.7504 21.6563 27.0856 20.8503Z" fill="#262626"/>
<path d="M18.1154 13.117C18.1154 13.133 18.1074 13.149 18.1074 13.1729V13.7954C17.4849 13.971 16.9342 14.3301 16.607 14.8249C16.2718 15.3357 16.192 15.9182 16.3756 16.4769C16.5831 17.1074 17.1178 17.6261 17.836 17.8974C17.844 17.8974 17.852 17.9054 17.868 17.9054L17.8839 17.9134C17.8919 17.9134 17.8919 17.9134 17.8999 17.9214L19.3763 18.4481C19.7115 18.5678 19.8791 18.7594 19.927 18.895V18.903C19.9429 18.9589 19.9509 19.0467 19.8791 19.1584C19.6397 19.5175 18.8895 19.741 18.2191 19.5095C17.9957 19.4297 17.8759 19.31 17.836 19.2302C17.7722 19.0866 17.6525 18.9828 17.5248 18.903C17.3013 18.7673 17.022 18.7274 16.7666 18.8471C16.7347 18.8631 16.7188 18.887 16.6868 18.903C16.3516 19.1185 16.208 19.5415 16.3836 19.9086C16.5591 20.2837 16.8624 20.5949 17.2535 20.8184C17.3811 20.8902 17.5248 20.962 17.6764 21.0099C17.8121 21.0578 17.9558 21.0897 18.0994 21.1216V21.6883C18.0994 22.1272 18.4585 22.4863 18.8975 22.4863C19.3364 22.4863 19.6955 22.1272 19.6955 21.6883V21.0578C19.911 20.9939 20.1105 20.9221 20.3021 20.8184C20.6612 20.6268 20.9804 20.3714 21.1959 20.0442C21.4273 19.6931 21.5311 19.302 21.5151 18.903C21.5071 18.7274 21.4832 18.5598 21.4273 18.3922C21.2198 17.7618 20.6931 17.251 19.9749 16.9797C19.9589 16.9717 19.9509 16.9717 19.935 16.9637L18.4107 16.421C18.0834 16.3013 17.9238 16.1178 17.8759 15.9821C17.852 15.9182 17.844 15.8384 17.9238 15.7107C18.1633 15.3516 18.9214 15.1282 19.5838 15.3596C19.8073 15.4394 19.927 15.5591 19.9669 15.6389C20.1504 16.038 20.6293 16.2055 21.0283 16.022C21.4273 15.8305 21.5949 15.3596 21.4114 14.9606C21.1799 14.4578 20.7171 14.0667 20.1185 13.8592C19.9828 13.8113 19.8392 13.7714 19.6955 13.7475V13.1809C19.6955 13.1649 19.6876 13.149 19.6876 13.125C19.6556 12.71 19.3204 12.3828 18.8975 12.3828C18.4745 12.3828 18.1473 12.702 18.1154 13.117Z" fill="#262626"/>
</svg>
