<svg width="40" height="40" viewBox="0 0 40 40" fill="none" xmlns="http://www.w3.org/2000/svg">
<path d="M8.00744 18.1438H13.8617C14.3601 18.1438 14.7715 17.7403 14.7715 17.234C14.7715 16.7277 14.3601 16.3242 13.8617 16.3242H8.00744C7.50904 16.3242 7.09766 16.7277 7.09766 17.234C7.09766 17.7403 7.50113 18.1438 8.00744 18.1438Z" fill="#262626"/>
<path d="M8.00744 22.1711H13.8617C14.3601 22.1711 14.7715 21.7677 14.7715 21.2614C14.7715 20.755 14.3601 20.3516 13.8617 20.3516H8.00744C7.50904 20.3516 7.09766 20.755 7.09766 21.2614C7.09766 21.7677 7.50113 22.1711 8.00744 22.1711Z" fill="#262626"/>
<path d="M16.9313 24.2109H8.00744C7.50904 24.2109 7.09766 24.6144 7.09766 25.1207C7.09766 25.627 7.50904 26.0305 8.00744 26.0305H16.9313C17.4297 26.0305 17.8411 25.627 17.8411 25.1207C17.8411 24.6144 17.4297 24.2109 16.9313 24.2109Z" fill="#262626"/>
<path d="M35.6495 28.2391L29.0753 14.972L30.3174 14.3549C30.5547 14.4341 30.7921 14.4736 31.0294 14.4736C31.3696 14.4736 31.7098 14.3945 32.0183 14.2363L32.8015 13.8486C33.9012 13.3028 34.36 11.9579 33.8141 10.8582L31.0294 5.24124C30.7683 4.70328 30.3095 4.30772 29.7399 4.11785C29.1782 3.92798 28.569 3.96754 28.031 4.23652L27.2478 4.62417C26.6941 4.90106 26.3064 5.36782 26.1244 5.91369L18.2528 9.81392C17.6911 9.62405 17.0819 9.6636 16.5519 9.93258L15.7687 10.3202C15.2386 10.5813 14.8352 11.0402 14.6453 11.6018H3.90979C3.41138 11.6018 3 12.0053 3 12.5116V31.5697C3 33.6108 4.38446 35.3275 6.26733 35.8418C6.40973 35.9367 6.56795 36 6.75782 36H7.43027H23.7274H24.0438C24.0834 36 24.115 35.9842 24.1466 35.9763C26.3143 35.7627 28.0073 33.9352 28.0073 31.7121V29.2755C28.0073 28.7692 27.5959 28.3657 27.0975 28.3657H24.9536V20.2013L30.262 30.9052C30.618 31.6251 31.2351 32.1631 31.9946 32.4162C32.311 32.5191 32.6354 32.5744 32.9597 32.5744C33.4186 32.5744 33.8695 32.4716 34.2888 32.258C35.7761 31.5302 36.3853 29.7264 35.6495 28.2391ZM33.4819 30.6362C32.8964 30.9289 32.1844 30.6837 31.8917 30.0982L25.3175 16.8312L26.3776 16.309L27.4377 15.7869L34.0119 29.054C34.3046 29.6315 34.0673 30.3435 33.4819 30.6362ZM28.0548 6.25387L28.838 5.86623C28.9013 5.83458 28.9646 5.82667 29.0199 5.82667C29.0753 5.82667 29.1228 5.83458 29.1544 5.8504C29.2177 5.87414 29.3285 5.9216 29.3918 6.05609L32.1765 11.673C32.2794 11.8787 32.1923 12.124 31.9866 12.2268L31.2034 12.6145C31.0689 12.6778 30.9503 12.654 30.887 12.6382C30.8237 12.6145 30.7129 12.567 30.6497 12.4325L29.6766 10.4705L27.8649 6.81557C27.77 6.60197 27.8491 6.35672 28.0548 6.25387ZM19.8588 11.5702L19.6531 11.1509L26.346 7.8282L26.9709 9.094L28.9171 13.018L25.5707 14.6793L24.9536 14.9799L23.6878 15.6049L23.134 15.8818L22.2242 16.3407L20.7765 13.4214L19.8746 11.6018L19.8588 11.5702ZM17.3588 11.5544C17.4221 11.5227 17.4854 11.5148 17.5408 11.5148C17.5962 11.5148 17.6436 11.5227 17.6753 11.5386C17.7069 11.5465 17.7465 11.5702 17.794 11.6018C17.8335 11.6335 17.881 11.681 17.9126 11.7442L18.7433 13.4214L20.6974 17.3691C20.7607 17.5036 20.7369 17.6223 20.7211 17.6856C20.7053 17.7489 20.6499 17.8596 20.5154 17.9229L19.7322 18.3105C19.5265 18.4134 19.2813 18.3264 19.1784 18.1207L16.8446 13.4214L16.3858 12.5037C16.3225 12.3692 16.3462 12.2506 16.362 12.1873C16.3778 12.124 16.4332 12.0132 16.5677 11.9499L17.2639 11.6018L17.3588 11.5544ZM26.1956 31.7121C26.1956 32.6219 25.6972 33.413 24.9615 33.8402C24.5976 34.0538 24.1862 34.1804 23.7353 34.1804H23.1419H10.4919C11.1248 33.3735 11.5125 32.3529 11.5125 31.2454V30.1932H23.1419H24.9615H26.1956V31.7121ZM10.5948 28.3736C10.0963 28.3736 9.68497 28.7771 9.68497 29.2834V31.2454C9.68497 32.7485 8.54575 33.9747 7.09009 34.1488C5.80848 33.9826 4.81958 32.8988 4.81958 31.5697V13.4214H14.8114L17.5408 18.9276C17.9284 19.7108 18.7275 20.1697 19.5502 20.1697C19.8825 20.1697 20.2227 20.0985 20.5391 19.9403L21.3223 19.5526C21.8603 19.2915 22.2559 18.8327 22.4457 18.2631L23.1419 17.9229V28.3736H10.5948Z" fill="#262626"/>
</svg>
