<svg width="22" height="26" viewBox="0 0 22 26" fill="none" xmlns="http://www.w3.org/2000/svg">
<mask id="mask0" mask-type="alpha" maskUnits="userSpaceOnUse" x="0" y="5" width="12" height="22">
<path fill-rule="evenodd" clip-rule="evenodd" d="M0.796875 5.92969H11.2245V26.0008H0.796875V5.92969Z" fill="white"/>
</mask>
<g mask="url(#mask0)">
<path fill-rule="evenodd" clip-rule="evenodd" d="M6.65867 26.0009C4.8339 24.8967 3.28984 23.5803 2.12592 21.8455C1.29808 20.6115 0.838025 19.2679 0.799055 17.8038C0.75026 15.9711 1.52285 14.4714 2.87426 13.2399C3.93109 12.2768 5.12308 11.502 6.37246 10.8081C7.10423 10.4017 7.7557 9.89799 8.31627 9.28313C9.06735 8.45937 9.31835 7.49656 9.1207 6.41353C9.10947 6.35198 9.10206 6.28982 9.09307 6.22927C9.39376 6.12375 9.67789 6.00795 9.97263 5.93209C10.0452 5.91347 10.1719 6.0069 10.2406 6.07922C11.0792 6.96281 11.3318 8.02131 11.1852 9.19578C11.0224 10.501 10.406 11.6068 9.59535 12.6159C9.02148 13.3302 8.39454 14.0032 7.81567 14.7138C6.99535 15.7209 6.19743 16.7517 5.78607 17.9987C5.15762 19.9037 5.53462 21.6115 6.91882 23.0888C7.04931 23.228 7.07031 23.3152 6.96885 23.4844C6.46932 24.3178 6.37072 25.1187 6.65867 26.0009Z" fill="#D80808"/>
</g>
<path fill-rule="evenodd" clip-rule="evenodd" d="M7.36136 22.8983C6.69444 22.2859 6.27959 21.5608 6.06532 20.7215C5.71723 19.358 6.07054 18.1109 6.76705 16.9414C7.55587 15.6168 8.57446 14.4632 9.62091 13.3315C10.6551 12.213 11.3806 10.928 11.6209 9.41989C11.8404 8.04305 11.5686 6.78327 10.5688 5.73394C10.5437 5.70764 10.5249 5.67554 10.4991 5.64079C10.6723 5.42499 10.8345 5.20267 11.0217 5.00311C11.0726 4.94886 11.2115 4.92659 11.2893 4.95168C13.4065 5.63328 14.7582 7.04532 15.2826 9.16608C15.5487 10.2423 15.2929 11.2819 14.7473 12.2514C14.1526 13.3085 13.3316 14.1887 12.5199 15.0806C11.5002 16.201 10.8804 17.489 10.9252 19.031C10.9276 19.1137 10.9138 19.2028 10.9399 19.2781C11.0839 19.692 10.9022 19.9015 10.5375 20.1181C9.36059 20.8169 8.32015 21.682 7.48399 22.7679C7.45631 22.8038 7.42172 22.8345 7.36136 22.8983Z" fill="#D80808"/>
<path fill-rule="evenodd" clip-rule="evenodd" d="M11.4573 19.5764C11.2664 18.4946 11.4388 17.512 11.9649 16.6215C12.2998 16.0547 12.7201 15.5238 13.1716 15.0396C13.915 14.2421 14.5938 13.4092 15.1383 12.4647C16.1779 10.6611 16.014 8.9226 14.9492 7.18902C14.1499 5.88786 13.0056 5.04786 11.5589 4.5782C11.3495 4.51019 11.2128 4.43588 11.2461 4.18256C11.2607 4.07234 11.2096 3.94737 11.1658 3.83787C11.1228 3.73074 11.0511 3.63478 10.9805 3.51411C12.0039 3.42306 12.9864 3.51019 13.9237 3.85687C16.1223 4.67013 17.7794 6.09515 18.7599 8.21139C19.2913 9.35857 19.3569 10.6019 19.2886 11.8408C19.2108 13.2546 18.7706 14.5673 17.9722 15.7504C17.4501 16.5241 16.7686 17.1248 15.9011 17.5174C14.6103 18.1016 13.3262 18.6997 12.0398 19.2933C11.8556 19.3783 11.6748 19.4705 11.4573 19.5764Z" fill="#D80808"/>
<mask id="mask1" mask-type="alpha" maskUnits="userSpaceOnUse" x="0" y="3" width="11" height="8">
<path fill-rule="evenodd" clip-rule="evenodd" d="M0 3.5H10.7346V10.8665H0V3.5Z" fill="white"/>
</mask>
<g mask="url(#mask1)">
<path fill-rule="evenodd" clip-rule="evenodd" d="M8.40374 5.70079C8.48409 6.00229 8.59022 6.29836 8.63969 6.60333C8.91068 8.27366 7.67534 9.82393 5.9613 9.93006C4.86977 9.99763 3.77408 9.99929 2.68035 10.0327C1.96868 10.0544 1.32934 10.2312 0.917914 10.8665C0.197711 10.2156 0.0407663 8.59753 0.67618 7.70361C0.721944 7.79554 0.743282 7.88206 0.796963 7.9393C1.45557 8.6415 2.47601 8.82349 3.33884 8.39852C3.6661 8.23731 3.8478 7.95836 3.80513 7.68256C3.76273 7.40786 3.50387 7.18549 3.14534 7.13029C2.46248 7.02521 1.78304 7.04272 1.11692 7.23278C0.932569 7.28543 0.76344 7.38941 0.54209 7.49051C0.367065 6.99339 0.15234 6.4946 0.0208885 5.97543C-0.0878775 5.54582 0.236455 5.21019 0.799377 5.07632C1.00635 5.0271 1.19525 4.97969 1.04302 4.65986C0.813921 4.72251 0.578532 4.78699 0.325288 4.85632C0.292551 4.43373 0.461456 4.08964 0.809372 3.89412C1.10782 3.72638 1.46135 3.5892 1.79933 3.56677C2.57254 3.51539 3.35125 3.53843 4.12766 3.54384C4.20498 3.54439 4.31212 3.61356 4.35384 3.68152C4.65858 4.17804 5.23818 4.17577 5.54948 3.67688C5.59222 3.60843 5.69851 3.53832 5.77645 3.53721C7.13268 3.51804 8.48914 3.50771 9.84555 3.50003C10.1941 3.49799 10.4975 3.60207 10.6547 3.9387C10.807 4.26456 10.7303 4.56815 10.5191 4.84478C10.0785 5.42212 9.49623 5.7172 8.75581 5.69107C8.65299 5.68748 8.55035 5.68008 8.44753 5.67754C8.43221 5.67715 8.41637 5.69372 8.40374 5.70079Z" fill="#D80808"/>
</g>
<mask id="mask2" mask-type="alpha" maskUnits="userSpaceOnUse" x="9" y="1" width="13" height="15">
<path fill-rule="evenodd" clip-rule="evenodd" d="M9.96875 1.67188H21.998V15.9615H9.96875V1.67188Z" fill="white"/>
</mask>
<g mask="url(#mask2)">
<path fill-rule="evenodd" clip-rule="evenodd" d="M18.5061 15.9598C18.7742 15.3229 19.1004 14.6625 19.3341 13.9718C20.1307 11.6189 19.9565 9.32358 18.7361 7.14834C18.2127 6.21564 17.427 5.47647 16.5747 4.81724C14.9873 3.58935 13.1996 2.95233 11.1656 3.02962C10.777 3.04438 10.3874 3.03172 9.96875 2.97128C10.2438 2.79349 10.5074 2.59487 10.7958 2.44139C12.5061 1.53129 14.2934 1.42079 16.0722 2.15084C19.2912 3.47189 21.2843 5.82017 21.9101 9.22844C22.2004 10.8096 21.7509 12.2278 20.8688 13.5455C20.2484 14.4724 19.454 15.23 18.5783 15.9145C18.5389 15.9453 18.4928 15.968 18.5061 15.9598Z" fill="#D80808"/>
</g>
<path fill-rule="evenodd" clip-rule="evenodd" d="M16.8626 1.93343C15.7466 1.45624 14.602 1.10359 13.3666 1.21163C11.8281 1.34617 10.4322 1.83253 9.28787 2.9008C9.22038 2.96376 9.11352 3.02065 9.02452 3.02137C7.23878 3.03556 5.45304 3.04119 3.66719 3.04755C3.64108 3.0476 3.61485 3.03457 3.5459 3.01628C4.00241 2.42548 4.50817 1.94929 5.26942 1.83104C5.61987 1.77658 5.97407 1.74339 6.32755 1.71074C6.76559 1.67032 7.1358 1.50612 7.43172 1.17948C8.06539 0.479931 8.86145 0.0896717 9.81031 0.032729C11.4085 -0.0632066 12.9874 0.0337231 14.5131 0.566367C15.3853 0.870798 16.1684 1.32529 16.8626 1.93343Z" fill="#D80808"/>
</svg>
