<svg width="40" height="40" viewBox="0 0 40 40" fill="none" xmlns="http://www.w3.org/2000/svg">
<path d="M39.878 21.9271L33.7151 11.9018C33.4689 11.5029 32.9426 11.3755 32.5436 11.6217L28.1719 14.3042C27.9766 14.423 27.8408 14.6098 27.7899 14.8305C27.7644 14.9239 27.7729 15.0172 27.7814 15.1106H18.554C17.6882 15.1106 16.8817 15.4247 16.2366 15.985C16.1517 15.7218 15.9649 15.5011 15.6763 15.4162L10.9905 14.0495C10.9735 14.041 10.9565 14.0495 10.9311 14.041L7.45065 11.9018C7.05167 11.6641 6.53385 11.7915 6.28768 12.1905L0.124786 22.2158C0.00594218 22.411 -0.0280131 22.6402 0.0229198 22.8609C0.0738528 23.0816 0.209674 23.2684 0.404917 23.3872L4.76818 26.0697C4.904 26.1546 5.0568 26.197 5.2096 26.197C5.49822 26.197 5.76986 26.0527 5.93115 25.7896C6.26221 26.248 6.66967 26.7912 7.04318 27.2072C6.86492 27.6316 6.8055 28.0985 6.88189 28.5569C6.99225 29.2106 7.34878 29.7793 7.88358 30.1613C8.20615 30.3905 8.55419 30.5263 8.91921 30.5857C8.81735 31.4516 9.16539 32.3514 9.9209 32.8947C10.3453 33.2003 10.8462 33.3616 11.3555 33.3616C11.4913 33.3616 11.6272 33.3531 11.763 33.3276C12.0007 33.2852 12.2214 33.2088 12.4336 33.1069C12.6119 33.438 12.8495 33.7266 13.1636 33.9473C13.5966 34.2614 14.1059 34.4057 14.5982 34.4057C14.6831 34.4057 14.7595 34.3887 14.8444 34.3803C14.9718 34.949 15.2943 35.4753 15.8037 35.8403C16.2281 36.1459 16.7289 36.3072 17.2383 36.3072C17.3741 36.3072 17.5099 36.2987 17.6457 36.2733C18.2994 36.1629 18.8681 35.8064 19.2501 35.2716L19.3944 35.0678C19.4369 35.0933 19.4708 35.1188 19.5048 35.1358C19.9292 35.3989 20.4046 35.5432 20.8885 35.5432C21.0837 35.5432 21.279 35.5178 21.4742 35.4753C22.1533 35.3225 22.7305 34.9066 23.1041 34.3208C23.138 34.2614 23.172 34.202 23.2059 34.1426C23.6473 34.3293 24.1397 34.3718 24.6151 34.2614C25.2263 34.1256 25.7441 33.7606 26.0751 33.2258C26.2704 32.9117 26.3892 32.5721 26.4232 32.2156C26.5845 32.2156 26.7458 32.1901 26.9155 32.1562C27.5522 32.0119 28.0955 31.6299 28.435 31.0781C28.6557 30.7216 28.7831 30.3311 28.8085 29.9236C29.632 29.8981 30.4299 29.4822 30.9053 28.7352C31.2279 28.2174 31.3382 27.6316 31.2703 27.0714L33.8594 25.1953L34.0546 25.5094C34.2159 25.7726 34.4961 25.9169 34.7762 25.9169C34.929 25.9169 35.0818 25.8744 35.2176 25.7896L39.5894 23.1071C39.7846 22.9882 39.9204 22.8015 39.9714 22.5808C40.0308 22.3431 39.9968 22.1139 39.878 21.9271ZM4.93795 24.1767L2.0178 22.377L7.28936 13.8033L10.2095 15.603L4.93795 24.1767ZM8.87677 28.7861C8.73246 28.6842 8.64757 28.5399 8.59664 28.3702C8.58815 28.3362 8.57117 28.3107 8.56268 28.2768C8.52873 28.073 8.57966 27.8693 8.6985 27.6995L9.32668 26.8252L10.0567 25.8065C10.1756 25.6368 10.3538 25.5264 10.5576 25.4924C10.6 25.484 10.6424 25.484 10.6849 25.484C10.8462 25.484 10.999 25.5349 11.1348 25.6283C11.3046 25.7471 11.4149 25.9254 11.4489 26.1291C11.4828 26.3328 11.4319 26.5366 11.3131 26.7063L10.7613 27.4703L10.634 27.6401L9.94636 28.5994C9.82752 28.7691 9.64925 28.871 9.45401 28.905C9.26726 28.9474 9.05504 28.9134 8.87677 28.7861ZM11.4913 31.6553C11.2876 31.6893 11.0839 31.6384 10.9141 31.5195C10.566 31.2733 10.4896 30.781 10.7358 30.4329L11.1008 29.9321L11.3385 29.601L12.0855 28.5569L12.3147 28.2343L13.6984 26.3074C13.8512 26.0952 14.0889 25.9848 14.3351 25.9848C14.4879 25.9848 14.6492 26.0357 14.785 26.1291C14.9548 26.248 15.0651 26.4262 15.0991 26.6299C15.133 26.8337 15.0821 27.0374 14.9633 27.2072L13.9701 28.5909C13.9701 28.5994 13.9616 28.5994 13.9531 28.6078L13.4013 29.3718L12.5949 30.5009C12.5949 30.5009 12.5949 30.5093 12.5864 30.5093L12.4081 30.7555L11.9837 31.3412C11.8818 31.511 11.6951 31.6214 11.4913 31.6553ZM14.1568 32.5721C13.987 32.4533 13.8767 32.275 13.8427 32.0713C13.8173 31.9355 13.8512 31.7996 13.8937 31.6723C13.9191 31.6129 13.9361 31.5535 13.9701 31.5025L14.8529 30.2717L15.3368 29.5925C15.4896 29.3888 15.7273 29.27 15.9649 29.27C16.1177 29.27 16.279 29.3209 16.4149 29.4143C16.5846 29.5331 16.695 29.7114 16.7289 29.9151C16.7629 30.1189 16.712 30.3226 16.5931 30.4924L16.1687 31.0781L15.9904 31.3328L15.2349 32.3854C15.2179 32.4108 15.184 32.4278 15.167 32.4533C14.9123 32.7334 14.4794 32.8013 14.1568 32.5721ZM17.8834 34.2784C17.7646 34.4482 17.5863 34.5585 17.3826 34.5925C17.1788 34.6264 16.9751 34.5755 16.8053 34.4566C16.4573 34.2105 16.3809 33.7181 16.6271 33.3701L16.6441 33.3531L17.3826 32.3175C17.476 32.1816 17.6203 32.0968 17.7646 32.0543C17.9938 31.9779 18.2569 31.9949 18.4691 32.1392C18.6389 32.258 18.7493 32.4363 18.7832 32.64C18.7832 32.6485 18.7832 32.6655 18.7832 32.674C18.8087 32.8692 18.7663 33.056 18.6474 33.2173L17.9683 34.168L17.8834 34.2784ZM29.4877 27.8184C29.233 28.2174 28.7067 28.3362 28.2992 28.09L27.688 27.708C27.688 27.708 27.688 27.708 27.6795 27.708L24.0803 25.4924C23.6813 25.2463 23.155 25.3736 22.9088 25.7726C22.6626 26.1716 22.79 26.6979 23.1889 26.944L26.7797 29.1511C26.9495 29.253 27.0598 29.4228 27.1108 29.618C27.1532 29.8133 27.1193 30.0085 27.0174 30.1783C26.9155 30.3481 26.7458 30.4584 26.5505 30.5093C26.3553 30.5518 26.16 30.5178 25.9903 30.416L25.3536 30.017C25.3451 30.017 25.3451 30.017 25.3366 30.0085C25.3281 30.0085 25.3281 30 25.3196 30L22.5438 28.4126C22.1363 28.1749 21.6185 28.3192 21.3893 28.7267C21.1601 29.1342 21.2959 29.652 21.7034 29.8812L24.4538 31.4516C24.5981 31.545 24.7 31.6808 24.7339 31.8506C24.7679 32.0204 24.7424 32.1901 24.649 32.3344C24.5556 32.4788 24.4113 32.5806 24.25 32.6146C24.0803 32.657 23.9105 32.6231 23.7662 32.5297L22.5268 31.7487C22.1278 31.5025 21.61 31.6214 21.3554 32.0119C21.1092 32.4108 21.228 32.9287 21.6185 33.1833C21.6864 33.2258 21.7119 33.3531 21.6694 33.421C21.5421 33.6247 21.3384 33.7691 21.1007 33.8285C20.863 33.8879 20.6168 33.837 20.4046 33.7011C20.3706 33.6842 20.3367 33.6587 20.3112 33.6417C20.464 33.2427 20.515 32.8098 20.4386 32.3769C20.3282 31.7232 19.9717 31.1545 19.4369 30.7725C19.1228 30.5433 18.7663 30.416 18.4012 30.3565C18.4267 30.1273 18.4352 29.8897 18.4012 29.652C18.2909 28.9983 17.9344 28.4296 17.3996 28.0476C17.1534 27.8693 16.8902 27.759 16.6101 27.6826C16.7799 27.2666 16.8308 26.8167 16.7629 26.3668C16.6525 25.7132 16.296 25.1444 15.7612 24.7624C14.819 24.0833 13.5626 24.1767 12.7222 24.8982C12.5609 24.6605 12.3572 24.4398 12.1195 24.2701C11.5847 23.8881 10.9226 23.7268 10.2774 23.8371C9.62379 23.9475 9.05504 24.304 8.67304 24.8388L8.0194 25.7301C7.67984 25.3057 7.26389 24.7454 6.89887 24.2191L11.8903 16.0953L14.9378 16.9866L12.5779 18.7523C11.3131 19.7031 11.0499 21.5027 12.0007 22.7675C12.5609 23.523 13.4268 23.9135 14.3011 23.9135C14.8954 23.9135 15.4981 23.7268 16.0159 23.3448L19.6576 20.6199L29.216 26.6384C29.615 26.8931 29.7423 27.4194 29.4877 27.8184ZM30.5233 25.5094C30.4044 25.3906 30.2686 25.2887 30.1243 25.1953L20.1924 18.9306C19.9547 18.7778 19.6661 18.7778 19.4199 18.8796C19.2501 18.8881 19.0803 18.9221 18.936 19.0324L15.0057 21.9696C14.4879 22.3601 13.7494 22.2497 13.3674 21.7319C13.1806 21.4772 13.1042 21.1716 13.1467 20.866C13.1891 20.5604 13.3589 20.2803 13.605 20.0936L17.0515 17.5129L17.1619 17.4111C17.5354 17.0206 18.0277 16.7999 18.554 16.7999H28.4096C28.5114 16.7999 28.5963 16.7744 28.6812 16.7405L32.9766 23.7183L30.5233 25.5094ZM35.0648 23.8881L29.7932 15.3143L32.7134 13.5147L37.985 22.0884L35.0648 23.8881Z" fill="#262626"/>
<path d="M18.9954 8.74526C19.4623 8.74526 19.8443 8.36326 19.8443 7.89637V4.84888C19.8443 4.382 19.4623 4 18.9954 4C18.5285 4 18.1465 4.382 18.1465 4.84888V7.89637C18.1465 8.36326 18.5285 8.74526 18.9954 8.74526Z" fill="#262626"/>
<path d="M14.9459 9.23823C15.1072 9.50987 15.3874 9.66267 15.6845 9.66267C15.8288 9.66267 15.9731 9.62872 16.1089 9.55232C16.5164 9.31463 16.6522 8.79681 16.423 8.38935L14.9035 5.74932C14.6658 5.34186 14.148 5.20604 13.7405 5.43523C13.3331 5.67292 13.1972 6.19074 13.4264 6.5982L14.9459 9.23823Z" fill="#262626"/>
<path d="M10.2093 10.4779L12.8493 11.9974C12.9851 12.0738 13.1294 12.1077 13.2737 12.1077C13.5709 12.1077 13.851 11.9549 14.0123 11.6833C14.25 11.2758 14.1057 10.758 13.6982 10.5203L11.0582 9.00932C10.6507 8.77163 10.1329 8.91594 9.8952 9.32341C9.666 9.72238 9.80182 10.2487 10.2093 10.4779Z" fill="#262626"/>
<path d="M21.8821 9.55218C22.018 9.62858 22.1623 9.66254 22.3066 9.66254C22.6037 9.66254 22.8838 9.50974 23.0451 9.2381L24.5646 6.59807C24.8023 6.19061 24.658 5.67279 24.2505 5.4351C23.8431 5.19741 23.3252 5.34172 23.0875 5.74919L21.568 8.38921C21.3388 8.79668 21.4747 9.3145 21.8821 9.55218Z" fill="#262626"/>
<path d="M23.9782 11.6919C24.1395 11.9636 24.4196 12.1164 24.7167 12.1164C24.861 12.1164 25.0054 12.0824 25.1412 12.006L27.7812 10.4865C28.1887 10.2488 28.3245 9.731 28.0953 9.32354C27.8576 8.91608 27.3398 8.78025 26.9323 9.00945L24.2923 10.529C23.8848 10.7666 23.749 11.2845 23.9782 11.6919Z" fill="#262626"/>
</svg>
